<?xml version="1.0" encoding="UTF-8"?>
<svg xmlns="http://www.w3.org/2000/svg" viewBox="0 0 256 256">
  <defs>
    <style>
      .cls-1 {
        fill: #a5c8ce;
        stroke: #fff;
      }

      .cls-1, .cls-2, .cls-3 {
        stroke-miterlimit: 10;
      }

      .cls-2 {
        fill: none;
      }

      .cls-2, .cls-3 {
        stroke: #000;
      }

      .cls-3 {
        fill: #1b839b;
      }
    </style>
  </defs>
  <g id="Layer_3" data-name="Layer 3">
    <ellipse class="cls-1" cx="65.98" cy="68.89" rx="29.67" ry="13.83"/>
    <ellipse class="cls-1" cx="169.46" cy="41.93" rx="29.67" ry="13.83"/>
  </g>
  <g id="Layer_2" data-name="Layer 2">
    <path class="cls-3" d="M72.02,92.43c.95-5.88,5.37-10.65,6.82-16.42.39-1.55.57-3.18,1.25-4.62.6-1.26,1.55-2.31,2.48-3.34,2.18-2.4,4.41-4.84,7.24-6.4.92-.51,1.9-.92,2.71-1.58,1.27-1.04,2.03-2.67,2-4.31,1.83,4.26,5.21,5.8,7.92,9.1,2.45,2.99,1.84,4.63,1.29,8.55"/>
    <path class="cls-3" d="M100.06,104.86l7.99-11.04c1.55-2.14,3.11-4.31,4.02-6.78,1.29-3.49,1.2-7.32,1.96-10.96,1.49-7.1,6.25-14.1,4.05-21.01,8.07,15.87,19.43,30.07,33.13,41.43"/>
    <path class="cls-2" d="M169.46,112.77c-2.66-1.7-4.29-4.89-4.11-8.04-2.61,4.03-2.45,5.06-5.88,8.42-.99-3.05-3.58-5.25-5.68-7.68-2.46-2.86-4.3-6.17-6.12-9.47-3.06.87-4.17,4.56-4.77,7.69l-1.5,7.69c-.61-2.79-1.37-1.98-4.14-2.65.16,2.42-1.32,4.87-3.55,5.84"/>
    <path class="cls-3" d="M39.78,112.34c.34-1.63.6-3.27.8-4.91,1.3.04,2.57.71,3.33,1.76.07-.89.14-1.78.21-2.68,1.43.35,2.75.38,4.18.73,2.1-1.35,4.21-2.8,5.68-4.82s2.22-4.73,1.34-7.06c2.38,1.68,4.42,3.85,5.95,6.34.34-2.36-.92-8.27-.58-10.63.14-.96.29-1.95.81-2.76,1.19-1.84,3.99-2.04,5.9-.95s3.09,3.09,4.04,5.07"/>
    <path class="cls-2" d="M130.56,9.1l-5.1,16.07c-.23.74-.47,1.49-.91,2.13-.38.56-.89,1.01-1.39,1.47-3.42,3.17-6.33,6.88-8.59,10.96-5.23,9.44-6.82,20.4-8.32,31.09"/>
    <path class="cls-2" d="M19,113.93c10.47-1.4,20.99-2.8,31.56-2.63,5.92.09,11.82.68,17.72,1.17,27.4,2.28,54.96,2.54,82.43,1.2,5.81-.28,11.61-.64,17.41-.99,4.62-.28,9.25-.57,13.87-.85,10.4-.64,20.81-1.27,31.21-1.91l-9.65-1.59c-.17-5.98-2.5-11.88-6.46-16.35-1.51,3.25-4.99,5.47-8.57,5.48.75-3.59-2.28-6.74-3.7-10.12-1.71-4.12-1.02-8.88-2.48-13.1-.86-2.48-2.42-4.65-3.74-6.91-3.66-6.27-5.53-13.4-7.37-20.43"/>
    <path class="cls-2" d="M64.79,134.4v-4.42c0,1.33,0,3.09,0,4.42Z"/>
    <path class="cls-2" d="M82.65,146.36c-.3,1.51-.8,3.05-1.2,4.5,3.29-4.4,3.91-10.5.46-15.04"/>
    <path class="cls-2" d="M87.35,139.25c-.16,3.63-.1,7.26.17,10.88.07.88.49,2.06,1.37,1.9.6-.11.86-.8,1-1.4.68-3.02.77-6.17.27-9.23"/>
    <path class="cls-2" d="M95.75,156.92c-.27,5.11,0,10.26.82,15.31,0-8.93.21-17.87.6-26.8"/>
    <path class="cls-2" d="M107.14,166.65l.6,10.28c.02.36.13.82.49.87.42.05.61-.5.65-.92.19-2.08.38-4.17.57-6.25"/>
    <path class="cls-2" d="M96.67,150.35c4.5,3.87,8.17,8.71,10.69,14.09.62,1.31,1.18,2.69,2.2,3.72,1.03,1.05,2.43,1.66,3.54,2.63,2.91,2.54,3.2,6.88,3.28,10.74.11,5.15.22,10.3.33,15.45-.84-7.95.97-16.16,5.08-23.02,1.68,3.08,4.11,5.75,7.01,7.72.75.51,1.55.99,2.03,1.76.37.58.51,1.27.64,1.95,3,15.42,3.76,31.28,2.24,46.92.19-9.85,1.83-19.68,4.82-29.07.63,4.29,1.26,8.59,1.89,12.88l1.23-2.53c2.02,11.9,2.73,24.03,2.1,36.09"/>
    <path class="cls-2" d="M144.44,212.28c2.58-2.63,4.81-5.6,6.59-8.82l2.03,1.9,3.77-22.05c.39,1.18,1.68,1.99,2.91,1.83.7-1.33,1.4-2.65,2.1-3.98l2.61,1.41.42-12.34,2.26,1.61,2.36-4.56c2.64.03,3.25,3.85,2.28,6.3s-2.64,5.11-1.53,7.5l1.81-8.07,4.64,8.58,1.28-4.13c4.42,7.11,3.76,16.18,2.42,24.44-1.34,8.26-3.21,16.86-.76,24.86,6.78-19.05,6.27-39.83,5.46-60.03l2.87,3.4c2.59-3.77.64-8.94,1.47-13.43.74-3.99,3.62-7.18,5.94-10.51,4.54-6.5,7.24-14.27,7.71-22.19-3.03,1.49-6.58,1.34-9.96,1.15-5.73-.32-11.47-.64-17.2-.95-3.89-.22-8.21-.62-10.82-3.52,4.87-.63,9.74-1.26,14.61-1.88,1.64-.21,3.36-.46,4.66-1.49s1.88-3.13.77-4.35c5.37-.66,10.75-1.32,16.12-1.97"/>
    <path class="cls-2" d="M97.47,149.89c-2.37-.28-3.93-2.57-4.95-4.73s-1.94-4.59-4-5.8c-2.13-1.25-5.02-.88-6.92-2.45"/>
    <path class="cls-3" d="M75.91,147.51c-1.43.29-2.71-1.17-2.85-2.62s.49-2.84,1.01-4.2.95-2.89.42-4.24c-.28-.71-.79-1.29-1.32-1.84-2.25-2.35-4.87-4.34-7.75-5.86,3.85.09,7.96-.93,11.81-.84,1.46.03,3.03.11,4.15,1.04s1.28,3.05-.04,3.66c1.99-.44,3.98-.88,5.98-1.32-.74,2.2-1.47,4.4-2.21,6.6,5.65-.88,10.89,3.42,13.92,8.27.74,1.18,1.43,2.45,2.55,3.28,1.18.87,2.67,1.15,4.12,1.4,4.07.7,8.21,1.39,11.9,3.23,5.47,2.72,9.42,7.68,13.19,12.49,5.31,6.77,10.62,13.54,15.93,20.31,1.18-8.95.83-18.1-1.03-26.93.58,4.47,3.29,8.61,7.16,10.93,1.39-6.89,2.25-13.89,2.57-20.92,1.22,3.83,4.68,6.86,8.64,7.57,1.2-3.62,3.2-6.96,5.81-9.73,2.14,3.34,4.72,6.4,7.65,9.08,6.43-9.2,10.43-20.08,11.48-31.26"/>
    <path class="cls-3" d="M169.46,41.93l-16.36,46.93c-2.44-10.94-6.1-21.6-10.87-31.74-.67-1.43-1.38-2.89-1.47-4.47-.12-2.2,1.1-4.43,3.02-5.5.75-2.43-1.99-4.33-3.94-5.96-10.26-8.6-7.32-21.32-8.45-33.04,8.31,10.21,14.79,21.9,19.05,34.36,2.45,1.81,4.54,4.12,6.08,6.75,1.5-1.93,2.41-4.32,2.55-6.76,2.62,2.52,4.98,5.31,7.04,8.3,1.2-1.65,1.97-3.61,2.21-5.64,1.45.65,2.57,1.99,2.95,3.54"/>
  </g>
</svg>